<mxfile host="app.diagrams.net" modified="2021-07-30T18:39:55.647Z" agent="5.0 (Windows NT 10.0; Win64; x64) AppleWebKit/537.36 (KHTML, like Gecko) Chrome/92.0.4515.107 Safari/537.36" etag="AtafMNq4aDbwjyrgvMjq" version="14.9.2" type="github">
  <diagram id="d3opJxRI5_fXu5W-zoYK" name="Page-1">
    <mxGraphModel dx="1182" dy="675" grid="1" gridSize="10" guides="1" tooltips="1" connect="1" arrows="1" fold="1" page="1" pageScale="1" pageWidth="827" pageHeight="1169" math="0" shadow="0">
      <root>
        <mxCell id="0" />
        <mxCell id="1" parent="0" />
        <mxCell id="J2HvdzhYp7L50vpHNsAT-1" value="P" style="ellipse;whiteSpace=wrap;html=1;aspect=fixed;fontStyle=1" vertex="1" parent="1">
          <mxGeometry x="10" y="20" width="40" height="40" as="geometry" />
        </mxCell>
        <mxCell id="J2HvdzhYp7L50vpHNsAT-2" value="E" style="ellipse;whiteSpace=wrap;html=1;aspect=fixed;fontStyle=1" vertex="1" parent="1">
          <mxGeometry x="60" y="20" width="40" height="40" as="geometry" />
        </mxCell>
        <mxCell id="J2HvdzhYp7L50vpHNsAT-3" value="C" style="ellipse;whiteSpace=wrap;html=1;aspect=fixed;fontStyle=1" vertex="1" parent="1">
          <mxGeometry x="110" y="20" width="40" height="40" as="geometry" />
        </mxCell>
        <mxCell id="J2HvdzhYp7L50vpHNsAT-4" value="A" style="ellipse;whiteSpace=wrap;html=1;aspect=fixed;fontStyle=1" vertex="1" parent="1">
          <mxGeometry x="160" y="20" width="40" height="40" as="geometry" />
        </mxCell>
        <mxCell id="J2HvdzhYp7L50vpHNsAT-5" value="N" style="ellipse;whiteSpace=wrap;html=1;aspect=fixed;fontStyle=1" vertex="1" parent="1">
          <mxGeometry x="210" y="20" width="40" height="40" as="geometry" />
        </mxCell>
        <mxCell id="J2HvdzhYp7L50vpHNsAT-7" value="N" style="ellipse;whiteSpace=wrap;html=1;aspect=fixed;fontStyle=1" vertex="1" parent="1">
          <mxGeometry x="730" y="20" width="40" height="40" as="geometry" />
        </mxCell>
        <mxCell id="J2HvdzhYp7L50vpHNsAT-8" value="A" style="ellipse;whiteSpace=wrap;html=1;aspect=fixed;fontStyle=1" vertex="1" parent="1">
          <mxGeometry x="680" y="20" width="40" height="40" as="geometry" />
        </mxCell>
        <mxCell id="J2HvdzhYp7L50vpHNsAT-9" value="C" style="ellipse;whiteSpace=wrap;html=1;aspect=fixed;fontStyle=1" vertex="1" parent="1">
          <mxGeometry x="630" y="20" width="40" height="40" as="geometry" />
        </mxCell>
        <mxCell id="J2HvdzhYp7L50vpHNsAT-10" value="E" style="ellipse;whiteSpace=wrap;html=1;aspect=fixed;fontStyle=1" vertex="1" parent="1">
          <mxGeometry x="580" y="20" width="40" height="40" as="geometry" />
        </mxCell>
        <mxCell id="J2HvdzhYp7L50vpHNsAT-11" value="P" style="ellipse;whiteSpace=wrap;html=1;aspect=fixed;fontStyle=1" vertex="1" parent="1">
          <mxGeometry x="530" y="20" width="40" height="40" as="geometry" />
        </mxCell>
        <mxCell id="J2HvdzhYp7L50vpHNsAT-12" value="E" style="ellipse;whiteSpace=wrap;html=1;aspect=fixed;fontStyle=1" vertex="1" parent="1">
          <mxGeometry x="420" y="20" width="40" height="40" as="geometry" />
        </mxCell>
        <mxCell id="J2HvdzhYp7L50vpHNsAT-13" value="I" style="ellipse;whiteSpace=wrap;html=1;aspect=fixed;fontStyle=1" vertex="1" parent="1">
          <mxGeometry x="370" y="20" width="40" height="40" as="geometry" />
        </mxCell>
        <mxCell id="J2HvdzhYp7L50vpHNsAT-14" value="P" style="ellipse;whiteSpace=wrap;html=1;aspect=fixed;fontStyle=1" vertex="1" parent="1">
          <mxGeometry x="324" y="20" width="40" height="40" as="geometry" />
        </mxCell>
        <mxCell id="J2HvdzhYp7L50vpHNsAT-20" value="U" style="text;html=1;strokeColor=none;fillColor=none;align=center;verticalAlign=middle;whiteSpace=wrap;rounded=0;fontSize=50;fontColor=#CC0066;fontStyle=1" vertex="1" parent="1">
          <mxGeometry x="270" y="30" width="40" height="20" as="geometry" />
        </mxCell>
        <mxCell id="J2HvdzhYp7L50vpHNsAT-22" value="" style="shape=flexArrow;endArrow=classic;html=1;fontSize=50;fontColor=#CC0066;strokeColor=#99004D;fillColor=#99004D;fontStyle=1" edge="1" parent="1">
          <mxGeometry width="50" height="50" relative="1" as="geometry">
            <mxPoint x="470" y="39.5" as="sourcePoint" />
            <mxPoint x="520" y="39.5" as="targetPoint" />
          </mxGeometry>
        </mxCell>
        <mxCell id="J2HvdzhYp7L50vpHNsAT-23" value="I" style="ellipse;whiteSpace=wrap;html=1;aspect=fixed;fontStyle=1" vertex="1" parent="1">
          <mxGeometry x="780" y="20" width="40" height="40" as="geometry" />
        </mxCell>
        <mxCell id="J2HvdzhYp7L50vpHNsAT-24" value="&lt;font style=&quot;font-size: 20px&quot;&gt;set(&quot;PECAN&quot;)|set(&quot;PIE&quot;) -&amp;gt;&amp;nbsp;&lt;span style=&quot;background-color: rgb(255 , 255 , 255) ; text-align: left&quot;&gt;{&#39;A&#39;, &#39;C&#39;, &#39;E&#39;, &#39;I&#39;, &#39;N&#39;, &#39;P&#39;}&amp;nbsp; # sjednocení&lt;/span&gt;&lt;/font&gt;" style="text;html=1;strokeColor=none;fillColor=none;align=center;verticalAlign=middle;whiteSpace=wrap;rounded=0;fontSize=20;" vertex="1" parent="1">
          <mxGeometry x="110" y="80" width="590" height="20" as="geometry" />
        </mxCell>
        <mxCell id="J2HvdzhYp7L50vpHNsAT-25" value="P" style="ellipse;whiteSpace=wrap;html=1;aspect=fixed;fontStyle=1" vertex="1" parent="1">
          <mxGeometry x="10" y="130" width="40" height="40" as="geometry" />
        </mxCell>
        <mxCell id="J2HvdzhYp7L50vpHNsAT-26" value="E" style="ellipse;whiteSpace=wrap;html=1;aspect=fixed;fontStyle=1" vertex="1" parent="1">
          <mxGeometry x="60" y="130" width="40" height="40" as="geometry" />
        </mxCell>
        <mxCell id="J2HvdzhYp7L50vpHNsAT-27" value="C" style="ellipse;whiteSpace=wrap;html=1;aspect=fixed;fontStyle=1" vertex="1" parent="1">
          <mxGeometry x="110" y="130" width="40" height="40" as="geometry" />
        </mxCell>
        <mxCell id="J2HvdzhYp7L50vpHNsAT-28" value="A" style="ellipse;whiteSpace=wrap;html=1;aspect=fixed;fontStyle=1" vertex="1" parent="1">
          <mxGeometry x="160" y="130" width="40" height="40" as="geometry" />
        </mxCell>
        <mxCell id="J2HvdzhYp7L50vpHNsAT-29" value="N" style="ellipse;whiteSpace=wrap;html=1;aspect=fixed;fontStyle=1" vertex="1" parent="1">
          <mxGeometry x="210" y="130" width="40" height="40" as="geometry" />
        </mxCell>
        <mxCell id="J2HvdzhYp7L50vpHNsAT-33" value="E" style="ellipse;whiteSpace=wrap;html=1;aspect=fixed;fontStyle=1" vertex="1" parent="1">
          <mxGeometry x="580" y="130" width="40" height="40" as="geometry" />
        </mxCell>
        <mxCell id="J2HvdzhYp7L50vpHNsAT-34" value="P" style="ellipse;whiteSpace=wrap;html=1;aspect=fixed;fontStyle=1" vertex="1" parent="1">
          <mxGeometry x="530" y="130" width="40" height="40" as="geometry" />
        </mxCell>
        <mxCell id="J2HvdzhYp7L50vpHNsAT-35" value="E" style="ellipse;whiteSpace=wrap;html=1;aspect=fixed;fontStyle=1" vertex="1" parent="1">
          <mxGeometry x="420" y="130" width="40" height="40" as="geometry" />
        </mxCell>
        <mxCell id="J2HvdzhYp7L50vpHNsAT-36" value="I" style="ellipse;whiteSpace=wrap;html=1;aspect=fixed;fontStyle=1" vertex="1" parent="1">
          <mxGeometry x="370" y="130" width="40" height="40" as="geometry" />
        </mxCell>
        <mxCell id="J2HvdzhYp7L50vpHNsAT-37" value="P" style="ellipse;whiteSpace=wrap;html=1;aspect=fixed;fontStyle=1" vertex="1" parent="1">
          <mxGeometry x="324" y="130" width="40" height="40" as="geometry" />
        </mxCell>
        <mxCell id="J2HvdzhYp7L50vpHNsAT-38" value="U" style="text;html=1;strokeColor=none;fillColor=none;align=center;verticalAlign=middle;whiteSpace=wrap;rounded=0;fontSize=50;fontColor=#CC0066;fontStyle=1;rotation=-180;" vertex="1" parent="1">
          <mxGeometry x="270" y="140" width="40" height="20" as="geometry" />
        </mxCell>
        <mxCell id="J2HvdzhYp7L50vpHNsAT-39" value="" style="shape=flexArrow;endArrow=classic;html=1;fontSize=50;fontColor=#CC0066;strokeColor=#99004D;fillColor=#99004D;fontStyle=1" edge="1" parent="1">
          <mxGeometry width="50" height="50" relative="1" as="geometry">
            <mxPoint x="470" y="149.5" as="sourcePoint" />
            <mxPoint x="520" y="149.5" as="targetPoint" />
          </mxGeometry>
        </mxCell>
        <mxCell id="J2HvdzhYp7L50vpHNsAT-41" value="&lt;font style=&quot;font-size: 20px&quot;&gt;set(&quot;PECAN&quot;) &amp;amp; set(&quot;PIE&quot;) -&amp;gt;&amp;nbsp;&lt;span style=&quot;background-color: rgb(255 , 255 , 255) ; text-align: left&quot;&gt;{&#39;P&#39;, &#39;E&#39;}&amp;nbsp; # průnik&lt;/span&gt;&lt;/font&gt;" style="text;html=1;strokeColor=none;fillColor=none;align=center;verticalAlign=middle;whiteSpace=wrap;rounded=0;fontSize=20;" vertex="1" parent="1">
          <mxGeometry x="110" y="190" width="590" height="20" as="geometry" />
        </mxCell>
        <mxCell id="J2HvdzhYp7L50vpHNsAT-42" value="P" style="ellipse;whiteSpace=wrap;html=1;aspect=fixed;fontStyle=1" vertex="1" parent="1">
          <mxGeometry x="10" y="230" width="40" height="40" as="geometry" />
        </mxCell>
        <mxCell id="J2HvdzhYp7L50vpHNsAT-43" value="E" style="ellipse;whiteSpace=wrap;html=1;aspect=fixed;fontStyle=1" vertex="1" parent="1">
          <mxGeometry x="60" y="230" width="40" height="40" as="geometry" />
        </mxCell>
        <mxCell id="J2HvdzhYp7L50vpHNsAT-44" value="C" style="ellipse;whiteSpace=wrap;html=1;aspect=fixed;fontStyle=1" vertex="1" parent="1">
          <mxGeometry x="110" y="230" width="40" height="40" as="geometry" />
        </mxCell>
        <mxCell id="J2HvdzhYp7L50vpHNsAT-45" value="A" style="ellipse;whiteSpace=wrap;html=1;aspect=fixed;fontStyle=1" vertex="1" parent="1">
          <mxGeometry x="160" y="230" width="40" height="40" as="geometry" />
        </mxCell>
        <mxCell id="J2HvdzhYp7L50vpHNsAT-46" value="N" style="ellipse;whiteSpace=wrap;html=1;aspect=fixed;fontStyle=1" vertex="1" parent="1">
          <mxGeometry x="210" y="230" width="40" height="40" as="geometry" />
        </mxCell>
        <mxCell id="J2HvdzhYp7L50vpHNsAT-47" value="A" style="ellipse;whiteSpace=wrap;html=1;aspect=fixed;fontStyle=1" vertex="1" parent="1">
          <mxGeometry x="580" y="230" width="40" height="40" as="geometry" />
        </mxCell>
        <mxCell id="J2HvdzhYp7L50vpHNsAT-48" value="C" style="ellipse;whiteSpace=wrap;html=1;aspect=fixed;fontStyle=1" vertex="1" parent="1">
          <mxGeometry x="530" y="230" width="40" height="40" as="geometry" />
        </mxCell>
        <mxCell id="J2HvdzhYp7L50vpHNsAT-49" value="E" style="ellipse;whiteSpace=wrap;html=1;aspect=fixed;fontStyle=1" vertex="1" parent="1">
          <mxGeometry x="420" y="230" width="40" height="40" as="geometry" />
        </mxCell>
        <mxCell id="J2HvdzhYp7L50vpHNsAT-50" value="I" style="ellipse;whiteSpace=wrap;html=1;aspect=fixed;fontStyle=1" vertex="1" parent="1">
          <mxGeometry x="370" y="230" width="40" height="40" as="geometry" />
        </mxCell>
        <mxCell id="J2HvdzhYp7L50vpHNsAT-51" value="P" style="ellipse;whiteSpace=wrap;html=1;aspect=fixed;fontStyle=1" vertex="1" parent="1">
          <mxGeometry x="324" y="230" width="40" height="40" as="geometry" />
        </mxCell>
        <mxCell id="J2HvdzhYp7L50vpHNsAT-52" value="\" style="text;html=1;strokeColor=none;fillColor=none;align=center;verticalAlign=middle;whiteSpace=wrap;rounded=0;fontSize=50;fontColor=#CC0066;fontStyle=1;rotation=-180;" vertex="1" parent="1">
          <mxGeometry x="270" y="240" width="40" height="20" as="geometry" />
        </mxCell>
        <mxCell id="J2HvdzhYp7L50vpHNsAT-53" value="" style="shape=flexArrow;endArrow=classic;html=1;fontSize=50;fontColor=#CC0066;strokeColor=#99004D;fillColor=#99004D;fontStyle=1" edge="1" parent="1">
          <mxGeometry width="50" height="50" relative="1" as="geometry">
            <mxPoint x="470" y="249.5" as="sourcePoint" />
            <mxPoint x="520" y="249.5" as="targetPoint" />
          </mxGeometry>
        </mxCell>
        <mxCell id="J2HvdzhYp7L50vpHNsAT-54" value="&lt;font style=&quot;font-size: 20px&quot;&gt;set(&quot;PECAN&quot;) - set(&quot;PIE&quot;) -&amp;gt;&amp;nbsp;&lt;span style=&quot;background-color: rgb(255 , 255 , 255) ; text-align: left&quot;&gt;{&#39;C&#39;, &#39;A&#39;, &#39;N&#39;}&amp;nbsp; # rozdíl&lt;/span&gt;&lt;/font&gt;" style="text;html=1;strokeColor=none;fillColor=none;align=center;verticalAlign=middle;whiteSpace=wrap;rounded=0;fontSize=20;" vertex="1" parent="1">
          <mxGeometry x="110" y="290" width="590" height="20" as="geometry" />
        </mxCell>
        <mxCell id="J2HvdzhYp7L50vpHNsAT-55" value="N" style="ellipse;whiteSpace=wrap;html=1;aspect=fixed;fontStyle=1" vertex="1" parent="1">
          <mxGeometry x="630" y="230" width="40" height="40" as="geometry" />
        </mxCell>
        <mxCell id="J2HvdzhYp7L50vpHNsAT-56" value="P" style="ellipse;whiteSpace=wrap;html=1;aspect=fixed;fontStyle=1" vertex="1" parent="1">
          <mxGeometry x="10" y="330" width="40" height="40" as="geometry" />
        </mxCell>
        <mxCell id="J2HvdzhYp7L50vpHNsAT-57" value="E" style="ellipse;whiteSpace=wrap;html=1;aspect=fixed;fontStyle=1" vertex="1" parent="1">
          <mxGeometry x="60" y="330" width="40" height="40" as="geometry" />
        </mxCell>
        <mxCell id="J2HvdzhYp7L50vpHNsAT-58" value="C" style="ellipse;whiteSpace=wrap;html=1;aspect=fixed;fontStyle=1" vertex="1" parent="1">
          <mxGeometry x="110" y="330" width="40" height="40" as="geometry" />
        </mxCell>
        <mxCell id="J2HvdzhYp7L50vpHNsAT-59" value="A" style="ellipse;whiteSpace=wrap;html=1;aspect=fixed;fontStyle=1" vertex="1" parent="1">
          <mxGeometry x="160" y="330" width="40" height="40" as="geometry" />
        </mxCell>
        <mxCell id="J2HvdzhYp7L50vpHNsAT-60" value="N" style="ellipse;whiteSpace=wrap;html=1;aspect=fixed;fontStyle=1" vertex="1" parent="1">
          <mxGeometry x="210" y="330" width="40" height="40" as="geometry" />
        </mxCell>
        <mxCell id="J2HvdzhYp7L50vpHNsAT-61" value="A" style="ellipse;whiteSpace=wrap;html=1;aspect=fixed;fontStyle=1" vertex="1" parent="1">
          <mxGeometry x="580" y="330" width="40" height="40" as="geometry" />
        </mxCell>
        <mxCell id="J2HvdzhYp7L50vpHNsAT-62" value="C" style="ellipse;whiteSpace=wrap;html=1;aspect=fixed;fontStyle=1" vertex="1" parent="1">
          <mxGeometry x="530" y="330" width="40" height="40" as="geometry" />
        </mxCell>
        <mxCell id="J2HvdzhYp7L50vpHNsAT-63" value="E" style="ellipse;whiteSpace=wrap;html=1;aspect=fixed;fontStyle=1" vertex="1" parent="1">
          <mxGeometry x="420" y="330" width="40" height="40" as="geometry" />
        </mxCell>
        <mxCell id="J2HvdzhYp7L50vpHNsAT-64" value="I" style="ellipse;whiteSpace=wrap;html=1;aspect=fixed;fontStyle=1" vertex="1" parent="1">
          <mxGeometry x="370" y="330" width="40" height="40" as="geometry" />
        </mxCell>
        <mxCell id="J2HvdzhYp7L50vpHNsAT-65" value="P" style="ellipse;whiteSpace=wrap;html=1;aspect=fixed;fontStyle=1" vertex="1" parent="1">
          <mxGeometry x="324" y="330" width="40" height="40" as="geometry" />
        </mxCell>
        <mxCell id="J2HvdzhYp7L50vpHNsAT-67" value="" style="shape=flexArrow;endArrow=classic;html=1;fontSize=50;fontColor=#CC0066;strokeColor=#99004D;fillColor=#99004D;fontStyle=1" edge="1" parent="1">
          <mxGeometry width="50" height="50" relative="1" as="geometry">
            <mxPoint x="470" y="349.5" as="sourcePoint" />
            <mxPoint x="520" y="349.5" as="targetPoint" />
          </mxGeometry>
        </mxCell>
        <mxCell id="J2HvdzhYp7L50vpHNsAT-68" value="&lt;font style=&quot;font-size: 20px&quot;&gt;set(&quot;PECAN&quot;) ^ set(&quot;PIE&quot;) -&amp;gt;&amp;nbsp;&lt;span style=&quot;background-color: rgb(255 , 255 , 255) ; text-align: left&quot;&gt;{&#39;C&#39;, &#39;A&#39;, &#39;N&#39;,&#39;I&#39;}&amp;nbsp; # symetrický rozdíl&lt;/span&gt;&lt;/font&gt;" style="text;html=1;strokeColor=none;fillColor=none;align=center;verticalAlign=middle;whiteSpace=wrap;rounded=0;fontSize=20;" vertex="1" parent="1">
          <mxGeometry x="110" y="390" width="590" height="20" as="geometry" />
        </mxCell>
        <mxCell id="J2HvdzhYp7L50vpHNsAT-69" value="N" style="ellipse;whiteSpace=wrap;html=1;aspect=fixed;fontStyle=1" vertex="1" parent="1">
          <mxGeometry x="630" y="330" width="40" height="40" as="geometry" />
        </mxCell>
        <mxCell id="J2HvdzhYp7L50vpHNsAT-70" value="" style="triangle;whiteSpace=wrap;html=1;dashed=0;direction=south;fontSize=20;rotation=-180;fontColor=#99004D;strokeColor=#99004D;fillColor=#FFFFFF;strokeWidth=5;" vertex="1" parent="1">
          <mxGeometry x="270" y="330" width="40" height="40" as="geometry" />
        </mxCell>
        <mxCell id="J2HvdzhYp7L50vpHNsAT-71" value="I" style="ellipse;whiteSpace=wrap;html=1;aspect=fixed;fontStyle=1" vertex="1" parent="1">
          <mxGeometry x="680" y="330" width="40" height="40" as="geometry" />
        </mxCell>
      </root>
    </mxGraphModel>
  </diagram>
</mxfile>
